<svg version="1.1" id="Layer_1" xmlns="http://www.w3.org/2000/svg" xmlns:xlink="http://www.w3.org/1999/xlink" x="0px" y="0px"
	 width="100%" viewBox="0 0 2000 1247" enable-background="new 0 0 2000 1247" xml:space="preserve">
<path fill="#4C6971" opacity="1.000000" stroke="none" 
	d="
M1230.000000,1248.000000 
	C820.000122,1248.000000 410.500244,1248.000000 1.000275,1248.000000 
	C1.000183,832.333557 1.000183,416.667145 1.000092,1.000554 
	C667.666199,1.000369 1334.332397,1.000369 2000.999023,1.000185 
	C2000.999268,416.666107 2000.999268,832.332214 2000.999634,1247.999146 
	C1744.166626,1248.000000 1487.333374,1248.000000 1230.000000,1248.000000 
M1200.500000,4.999250 
	C1025.439575,4.999250 850.379211,4.999250 674.551880,4.999250 
	C675.069580,13.456116 675.627686,21.035448 675.974243,28.624439 
	C676.405396,38.064983 676.665710,47.513374 676.992737,56.958622 
	C677.664124,76.348579 678.327087,95.738831 679.000732,115.128716 
	C679.323181,124.407509 679.673218,133.685349 679.991272,142.964294 
	C680.667297,162.687469 681.325500,182.411285 682.001648,202.134460 
	C682.319702,211.413330 682.669800,220.691116 682.992126,229.969849 
	C683.665771,249.359802 684.327026,268.750183 685.000732,288.140137 
	C685.323181,297.418945 685.668152,306.696899 685.992615,315.975616 
	C686.664795,335.198914 687.330811,354.422394 687.997803,373.645844 
	C688.664795,392.869324 689.331909,412.092773 689.995483,431.316376 
	C690.664856,450.706360 691.323669,470.096710 691.998779,489.486511 
	C692.656372,508.376923 693.337219,527.266541 693.992432,546.157043 
	C694.670837,565.713501 695.320740,585.270935 696.001526,604.827271 
	C696.653320,623.551208 697.341248,642.273926 697.990356,660.997925 
	C698.674133,680.720886 699.325500,700.445007 700.001526,720.168274 
	C700.319580,729.447083 700.701233,738.723999 700.984314,748.003845 
	C701.358765,760.280823 701.673340,772.559631 701.998108,784.838135 
	C702.362427,798.615417 702.705078,812.393250 703.082520,826.170166 
	C703.095032,826.625305 703.383667,827.072876 703.554688,827.555359 
	C722.006531,827.555359 740.367676,827.555359 759.466431,827.555359 
	C758.965088,817.489990 758.387085,807.900757 758.030334,798.303223 
	C757.291260,778.415649 756.679932,758.523315 755.995056,738.633728 
	C755.692749,729.854248 755.312744,721.077393 755.014587,712.297791 
	C754.327759,692.075012 753.683960,671.850891 752.992798,651.628296 
	C752.704102,643.181641 752.304810,634.738708 752.016052,626.292053 
	C751.324890,606.069336 750.681030,585.845093 749.994202,565.622192 
	C749.695984,556.842590 749.315796,548.065857 749.013611,539.286377 
	C748.328979,519.396851 747.679871,499.506042 746.995178,479.616486 
	C746.692932,470.837036 746.312195,462.060211 746.014099,453.280609 
	C745.327393,433.057800 744.680969,412.833588 743.994202,392.610779 
	C743.696106,383.831238 743.317444,375.054504 743.013123,366.275146 
	C742.329529,346.552124 741.677673,326.828033 740.996338,307.104919 
	C740.687317,298.159027 740.315796,289.215240 740.013062,280.269135 
	C739.328613,260.046295 738.683777,239.822144 737.992737,219.599579 
	C737.704102,211.152908 737.304077,202.710068 737.015442,194.263397 
	C736.324341,174.040695 735.588928,153.818985 735.024841,133.592590 
	C734.566223,117.151550 734.335571,100.704201 733.983032,84.260086 
	C733.961975,83.275963 733.655396,82.296288 733.650757,81.313736 
	C733.619751,74.736259 733.634644,68.158577 733.634644,61.395554 
	C911.930298,61.395554 1090.282227,61.395554 1268.999512,61.395554 
	C1268.999512,63.601017 1269.064453,65.415016 1268.989380,67.223190 
	C1268.342896,82.781036 1267.609985,98.335518 1267.021729,113.895493 
	C1266.288940,133.283142 1265.672363,152.675171 1264.999634,172.065109 
	C1264.338379,191.122086 1263.582153,210.176285 1263.031494,229.236435 
	C1262.566040,245.343796 1262.354614,261.458374 1261.975342,277.568451 
	C1261.929077,279.532440 1261.367188,281.485992 1261.339966,283.448486 
	C1261.253906,289.654297 1261.308228,295.862091 1261.308228,302.659760 
	C1262.353882,301.856720 1262.963623,301.564484 1263.325684,301.085144 
	C1279.677490,279.439911 1296.074463,257.828125 1312.279297,236.073212 
	C1315.256104,232.076965 1319.338501,227.631348 1319.666992,223.155136 
	C1321.098145,203.654434 1321.325562,184.065598 1322.002563,164.509201 
	C1322.318115,155.396866 1322.686768,146.286316 1322.988037,137.173538 
	C1323.673218,116.450722 1324.395386,95.728821 1324.980103,75.003098 
	C1325.420288,59.394859 1325.667969,43.781200 1326.011108,28.170176 
	C1326.029297,27.342831 1326.157471,26.518515 1326.202515,25.691053 
	C1326.567139,18.975073 1326.924194,12.258683 1327.312622,4.999250 
	C1284.741089,4.999250 1243.120605,4.999250 1200.500000,4.999250 
M663.500000,901.000610 
	C639.423950,901.000610 615.347961,901.000610 590.766479,901.000610 
	C590.766479,690.553101 590.766479,480.980621 590.766479,271.320496 
	C562.339050,271.320496 534.428711,271.320496 506.434143,271.320496 
	C506.434143,506.996338 506.434143,742.351807 506.434143,977.625366 
	C635.108704,977.625366 763.349548,977.625366 891.679688,977.625366 
	C891.679688,952.006104 891.679688,926.762390 891.679688,901.000610 
	C815.740723,901.000610 740.120361,901.000610 663.500000,901.000610 
M1481.490234,977.999512 
	C1486.220947,977.999512 1490.951660,977.999512 1497.082642,977.999512 
	C1487.493530,966.122070 1478.893921,955.374939 1470.189209,944.713562 
	C1460.601074,932.970337 1450.863647,921.348999 1441.289062,909.594788 
	C1431.830322,897.982971 1422.549438,886.226135 1413.088013,874.616455 
	C1403.615479,862.993286 1393.962646,851.516968 1384.487183,839.896179 
	C1374.813232,828.031860 1365.300171,816.036499 1355.640869,804.160217 
	C1344.934082,790.996155 1334.084961,777.947876 1323.402344,764.764343 
	C1312.730469,751.594543 1302.274536,738.249390 1291.566284,725.109680 
	C1278.971313,709.654968 1266.146484,694.387756 1253.532227,678.948669 
	C1240.824341,663.395142 1228.336182,647.661011 1215.537964,632.182861 
	C1213.420044,629.621399 1213.417480,627.815735 1215.216064,625.426392 
	C1228.467529,607.823425 1241.643921,590.163513 1254.946899,572.599670 
	C1273.217651,548.476929 1291.662354,524.485718 1309.877075,500.320892 
	C1326.298584,478.534821 1342.415527,456.519012 1358.840942,434.735931 
	C1377.059814,410.574463 1395.536621,386.607544 1413.790039,362.472015 
	C1432.827759,337.299316 1451.740601,312.032196 1470.689941,286.792877 
	C1474.387573,281.867950 1478.003296,276.881378 1482.023438,271.425751 
	C1480.460693,271.194397 1479.847900,271.024506 1479.234985,271.024231 
	C1445.906616,271.008331 1412.578003,270.944733 1379.250977,271.154602 
	C1377.211914,271.167450 1374.572876,272.884155 1373.249878,274.605164 
	C1359.925903,291.938660 1346.815063,309.436127 1333.651245,326.892761 
	C1316.228760,349.996948 1298.811523,373.105225 1281.393311,396.212616 
	C1264.075073,419.187469 1246.758667,442.163635 1229.441284,465.139252 
	C1212.124023,488.114838 1194.782593,511.072113 1177.495605,534.070496 
	C1154.481445,564.688110 1131.544312,595.363647 1108.451660,625.921753 
	C1106.695801,628.245300 1107.175659,629.397522 1108.783203,631.386597 
	C1120.784790,646.236206 1132.665527,661.184021 1144.544678,676.132324 
	C1158.466309,693.650574 1172.286011,711.250000 1186.264526,728.722534 
	C1200.254028,746.208862 1214.467285,763.516296 1228.431519,781.022583 
	C1243.409790,799.800354 1258.125732,818.787231 1273.113647,837.557068 
	C1289.756470,858.399414 1306.618164,879.067017 1323.310059,899.870361 
	C1343.293823,924.776123 1363.286377,949.676086 1383.010620,974.786377 
	C1385.122925,977.475464 1387.078735,978.032471 1390.006714,978.027954 
	C1420.168823,977.981384 1450.331055,977.999451 1481.490234,977.999512 
M1004.999695,638.500000 
	C1004.999695,751.554443 1004.999695,864.608887 1004.999695,977.651489 
	C1034.060425,977.651489 1062.300415,977.651489 1090.589600,977.651489 
	C1090.589600,741.981506 1090.589600,506.659882 1090.589600,271.348450 
	C1061.938232,271.348450 1033.698242,271.348450 1004.999695,271.348450 
	C1004.999695,393.630554 1004.999695,515.565247 1004.999695,638.500000 
M1114.500000,1244.000610 
	C1170.909912,1244.000610 1227.319946,1244.000610 1283.822876,1244.000610 
	C1284.577026,1229.101196 1285.400024,1215.056396 1285.971924,1201.001343 
	C1286.747314,1181.948486 1287.335693,1162.887939 1287.993652,1143.830322 
	C1288.668945,1124.273315 1289.321411,1104.715454 1290.002075,1085.158691 
	C1290.653809,1066.434204 1291.384155,1047.712158 1291.975464,1028.985840 
	C1292.405151,1015.377075 1292.090576,1001.715576 1293.206299,988.168152 
	C1293.923828,979.455750 1290.041748,973.565002 1285.047974,967.456543 
	C1274.843140,954.973633 1264.948486,942.237427 1254.877808,929.644226 
	C1250.289551,923.906738 1245.586792,918.260986 1240.469604,912.003357 
	C1239.872314,914.780273 1239.129883,916.783813 1239.053467,918.812317 
	C1238.305542,938.699951 1237.676147,958.592041 1236.996704,978.482300 
	C1236.685425,987.594971 1236.325195,996.705933 1236.009399,1005.818420 
	C1235.331909,1025.375366 1234.674927,1044.933228 1233.997314,1064.490112 
	C1233.681763,1073.602783 1233.301147,1082.713135 1233.016357,1091.826538 
	C1232.642944,1103.770630 1232.304565,1115.716064 1232.007080,1127.662231 
	C1231.639282,1142.439697 1231.428101,1157.221802 1230.940918,1171.995117 
	C1230.768677,1177.217285 1229.982910,1182.419067 1229.471802,1187.687744 
	C1077.002686,1187.687744 924.762939,1187.687744 772.540222,1187.687744 
	C772.007324,1182.642944 771.216492,1177.918335 771.056335,1173.172363 
	C770.278259,1150.119019 769.652039,1127.060425 769.006897,1104.002563 
	C768.635437,1090.725220 768.424744,1077.442627 767.943237,1064.169434 
	C767.777527,1059.600220 767.010681,1055.052856 766.511658,1050.432739 
	C747.996826,1050.432739 729.630066,1050.432739 711.212646,1050.432739 
	C711.124939,1051.853882 710.967834,1052.851318 711.017090,1053.838379 
	C711.651855,1066.563477 712.381836,1079.284302 712.951843,1092.012207 
	C713.396973,1101.952637 713.676758,1111.901001 713.987976,1121.847046 
	C714.672852,1143.737061 715.369812,1165.626953 715.986633,1187.518921 
	C716.393616,1201.961914 716.581299,1216.411499 717.059631,1230.851807 
	C717.199829,1235.085571 717.999390,1239.297485 718.553467,1244.000610 
	C850.262817,1244.000610 981.881409,1244.000610 1114.500000,1244.000610 
M799.000488,406.617798 
	C799.333557,415.561676 799.665039,424.505646 800.000122,433.449432 
	C800.328979,442.227142 800.687073,451.003815 800.987244,459.782501 
	C801.672852,479.836853 802.321167,499.892548 803.004456,519.947021 
	C803.309265,528.892212 803.679871,537.835144 803.988892,546.780212 
	C804.670044,566.501343 805.322754,586.223511 806.003906,605.944641 
	C806.312805,614.889709 806.683228,623.832703 806.987976,632.777893 
	C807.671265,652.832397 808.321350,672.887939 809.004639,692.942444 
	C809.309448,701.887573 809.701294,710.829895 809.984558,719.775696 
	C810.677917,741.662842 811.353699,763.550598 811.992126,785.439392 
	C812.384277,798.881348 812.689148,812.325806 813.058777,825.768494 
	C813.075745,826.386108 813.344849,826.996826 813.518494,827.699951 
	C831.957336,827.699951 850.199707,827.699951 869.418030,827.699951 
	C868.936462,818.316650 868.369934,809.269775 868.028503,800.214355 
	C867.291199,780.661926 866.675232,761.105042 865.997620,741.550293 
	C865.681946,732.438904 865.320679,723.329102 865.011292,714.217468 
	C864.330261,694.162964 863.681763,674.107239 862.994019,654.052917 
	C862.698608,645.440674 862.308899,636.831726 862.013489,628.219482 
	C861.325684,608.165283 860.678711,588.109680 859.995422,568.055298 
	C859.690674,559.110107 859.316772,550.167175 859.011963,541.221985 
	C858.328674,521.167480 857.681702,501.111786 856.993835,481.057495 
	C856.698486,472.445251 856.308899,463.836243 856.013550,455.223999 
	C855.325684,435.169769 854.678711,415.114136 853.995544,395.059753 
	C853.690796,386.114532 853.320312,377.171570 853.011292,368.226501 
	C852.330139,348.505280 851.677246,328.783112 850.996155,309.061890 
	C850.687195,300.116913 850.307617,291.174255 850.015442,282.228760 
	C849.647217,270.952545 849.285400,259.675720 849.011658,248.396942 
	C848.628723,232.621658 848.432190,216.841187 847.947998,201.069321 
	C847.730408,193.981552 847.009399,186.909256 846.507751,179.699783 
	C828.197266,180.223419 809.857849,180.747864 791.272827,181.279358 
	C791.168152,182.899002 790.963684,184.198639 791.019409,185.487045 
	C791.648865,200.044250 792.358643,214.598053 792.962708,229.156250 
	C793.375183,239.097275 793.652527,249.043869 793.994446,258.987823 
	C794.661133,278.376160 795.327148,297.764557 796.000854,317.152649 
	C796.323242,326.430603 796.678467,335.707397 796.990356,344.985687 
	C797.669983,365.206909 798.331543,385.428741 799.000488,406.617798 
M824.749207,1050.002686 
	C822.043030,1049.666504 820.702942,1050.646362 820.981873,1053.578857 
	C821.459839,1058.604980 821.797668,1063.644409 822.241028,1069.270752 
	C841.106812,1068.747437 859.420593,1068.239380 878.000916,1067.723999 
	C877.483704,1061.535156 877.010254,1055.870605 876.519653,1049.999878 
	C859.294922,1049.999878 842.498352,1049.999878 824.749207,1050.002686 
z"/>
<path fill="#FE7833" opacity="1.000000" stroke="none" 
	d="
M1201.000000,4.999250 
	C1243.120605,4.999250 1284.741089,4.999250 1327.312622,4.999250 
	C1326.924194,12.258683 1326.567139,18.975073 1326.202515,25.691053 
	C1326.157471,26.518515 1326.029297,27.342831 1326.011108,28.170176 
	C1325.667969,43.781200 1325.420288,59.394859 1324.980103,75.003098 
	C1324.395386,95.728821 1323.673218,116.450722 1322.988037,137.173538 
	C1322.686768,146.286316 1322.318115,155.396866 1322.002563,164.509201 
	C1321.325562,184.065598 1321.098145,203.654434 1319.666992,223.155136 
	C1319.338501,227.631348 1315.256104,232.076965 1312.279297,236.073212 
	C1296.074463,257.828125 1279.677490,279.439911 1263.325684,301.085144 
	C1262.963623,301.564484 1262.353882,301.856720 1261.308228,302.659760 
	C1261.308228,295.862091 1261.253906,289.654297 1261.339966,283.448486 
	C1261.367188,281.485992 1261.929077,279.532440 1261.975342,277.568451 
	C1262.354614,261.458374 1262.566040,245.343796 1263.031494,229.236435 
	C1263.582153,210.176285 1264.338379,191.122086 1264.999634,172.065109 
	C1265.672363,152.675171 1266.288940,133.283142 1267.021729,113.895493 
	C1267.609985,98.335518 1268.342896,82.781036 1268.989380,67.223190 
	C1269.064453,65.415016 1268.999512,63.601017 1268.999512,61.395554 
	C1090.282227,61.395554 911.930298,61.395554 733.634644,61.395554 
	C733.634644,68.158577 733.619751,74.736259 733.650757,81.313736 
	C733.655396,82.296288 733.961975,83.275963 733.983032,84.260086 
	C734.335571,100.704201 734.566223,117.151550 735.024841,133.592590 
	C735.588928,153.818985 736.324341,174.040695 737.015442,194.263397 
	C737.304077,202.710068 737.704102,211.152908 737.992737,219.599579 
	C738.683777,239.822144 739.328613,260.046295 740.013062,280.269135 
	C740.315796,289.215240 740.687317,298.159027 740.996338,307.104919 
	C741.677673,326.828033 742.329529,346.552124 743.013123,366.275146 
	C743.317444,375.054504 743.696106,383.831238 743.994202,392.610779 
	C744.680969,412.833588 745.327393,433.057800 746.014099,453.280609 
	C746.312195,462.060211 746.692932,470.837036 746.995178,479.616486 
	C747.679871,499.506042 748.328979,519.396851 749.013611,539.286377 
	C749.315796,548.065857 749.695984,556.842590 749.994202,565.622192 
	C750.681030,585.845093 751.324890,606.069336 752.016052,626.292053 
	C752.304810,634.738708 752.704102,643.181641 752.992798,651.628296 
	C753.683960,671.850891 754.327759,692.075012 755.014587,712.297791 
	C755.312744,721.077393 755.692749,729.854248 755.995056,738.633728 
	C756.679932,758.523315 757.291260,778.415649 758.030334,798.303223 
	C758.387085,807.900757 758.965088,817.489990 759.466431,827.555359 
	C740.367676,827.555359 722.006531,827.555359 703.554688,827.555359 
	C703.383667,827.072876 703.095032,826.625305 703.082520,826.170166 
	C702.705078,812.393250 702.362427,798.615417 701.998108,784.838135 
	C701.673340,772.559631 701.358765,760.280823 700.984314,748.003845 
	C700.701233,738.723999 700.319580,729.447083 700.001526,720.168274 
	C699.325500,700.445007 698.674133,680.720886 697.990356,660.997925 
	C697.341248,642.273926 696.653320,623.551208 696.001526,604.827271 
	C695.320740,585.270935 694.670837,565.713501 693.992432,546.157043 
	C693.337219,527.266541 692.656372,508.376923 691.998779,489.486511 
	C691.323669,470.096710 690.664856,450.706360 689.995483,431.316376 
	C689.331909,412.092773 688.664795,392.869324 687.997803,373.645844 
	C687.330811,354.422394 686.664795,335.198914 685.992615,315.975616 
	C685.668152,306.696899 685.323181,297.418945 685.000732,288.140137 
	C684.327026,268.750183 683.665771,249.359802 682.992126,229.969849 
	C682.669800,220.691116 682.319702,211.413330 682.001648,202.134460 
	C681.325500,182.411285 680.667297,162.687469 679.991272,142.964294 
	C679.673218,133.685349 679.323181,124.407509 679.000732,115.128716 
	C678.327087,95.738831 677.664124,76.348579 676.992737,56.958622 
	C676.665710,47.513374 676.405396,38.064983 675.974243,28.624439 
	C675.627686,21.035448 675.069580,13.456116 674.551880,4.999250 
	C850.379211,4.999250 1025.439575,4.999250 1201.000000,4.999250 
z"/>
<path fill="#FE7833" opacity="1.000000" stroke="none" 
	d="
M664.000000,901.000610 
	C740.120361,901.000610 815.740723,901.000610 891.679688,901.000610 
	C891.679688,926.762390 891.679688,952.006104 891.679688,977.625366 
	C763.349548,977.625366 635.108704,977.625366 506.434143,977.625366 
	C506.434143,742.351807 506.434143,506.996338 506.434143,271.320496 
	C534.428711,271.320496 562.339050,271.320496 590.766479,271.320496 
	C590.766479,480.980621 590.766479,690.553101 590.766479,901.000610 
	C615.347961,901.000610 639.423950,901.000610 664.000000,901.000610 
z"/>
<path fill="#FE7833" opacity="1.000000" stroke="none" 
	d="
M1480.991699,977.999512 
	C1450.331055,977.999451 1420.168823,977.981384 1390.006714,978.027954 
	C1387.078735,978.032471 1385.122925,977.475464 1383.010620,974.786377 
	C1363.286377,949.676086 1343.293823,924.776123 1323.310059,899.870361 
	C1306.618164,879.067017 1289.756470,858.399414 1273.113647,837.557068 
	C1258.125732,818.787231 1243.409790,799.800354 1228.431519,781.022583 
	C1214.467285,763.516296 1200.254028,746.208862 1186.264526,728.722534 
	C1172.286011,711.250000 1158.466309,693.650574 1144.544678,676.132324 
	C1132.665527,661.184021 1120.784790,646.236206 1108.783203,631.386597 
	C1107.175659,629.397522 1106.695801,628.245300 1108.451660,625.921753 
	C1131.544312,595.363647 1154.481445,564.688110 1177.495605,534.070496 
	C1194.782593,511.072113 1212.124023,488.114838 1229.441284,465.139252 
	C1246.758667,442.163635 1264.075073,419.187469 1281.393311,396.212616 
	C1298.811523,373.105225 1316.228760,349.996948 1333.651245,326.892761 
	C1346.815063,309.436127 1359.925903,291.938660 1373.249878,274.605164 
	C1374.572876,272.884155 1377.211914,271.167450 1379.250977,271.154602 
	C1412.578003,270.944733 1445.906616,271.008331 1479.234985,271.024231 
	C1479.847900,271.024506 1480.460693,271.194397 1482.023438,271.425751 
	C1478.003296,276.881378 1474.387573,281.867950 1470.689941,286.792877 
	C1451.740601,312.032196 1432.827759,337.299316 1413.790039,362.472015 
	C1395.536621,386.607544 1377.059814,410.574463 1358.840942,434.735931 
	C1342.415527,456.519012 1326.298584,478.534821 1309.877075,500.320892 
	C1291.662354,524.485718 1273.217651,548.476929 1254.946899,572.599670 
	C1241.643921,590.163513 1228.467529,607.823425 1215.216064,625.426392 
	C1213.417480,627.815735 1213.420044,629.621399 1215.537964,632.182861 
	C1228.336182,647.661011 1240.824341,663.395142 1253.532227,678.948669 
	C1266.146484,694.387756 1278.971313,709.654968 1291.566284,725.109680 
	C1302.274536,738.249390 1312.730469,751.594543 1323.402344,764.764343 
	C1334.084961,777.947876 1344.934082,790.996155 1355.640869,804.160217 
	C1365.300171,816.036499 1374.813232,828.031860 1384.487183,839.896179 
	C1393.962646,851.516968 1403.615479,862.993286 1413.088013,874.616455 
	C1422.549438,886.226135 1431.830322,897.982971 1441.289062,909.594788 
	C1450.863647,921.348999 1460.601074,932.970337 1470.189209,944.713562 
	C1478.893921,955.374939 1487.493530,966.122070 1497.082642,977.999512 
	C1490.951660,977.999512 1486.220947,977.999512 1480.991699,977.999512 
z"/>
<path fill="#FE7833" opacity="1.000000" stroke="none" 
	d="
M1004.999695,638.000000 
	C1004.999695,515.565247 1004.999695,393.630554 1004.999695,271.348450 
	C1033.698242,271.348450 1061.938232,271.348450 1090.589600,271.348450 
	C1090.589600,506.659882 1090.589600,741.981506 1090.589600,977.651489 
	C1062.300415,977.651489 1034.060425,977.651489 1004.999695,977.651489 
	C1004.999695,864.608887 1004.999695,751.554443 1004.999695,638.000000 
z"/>
<path fill="#FE7833" opacity="1.000000" stroke="none" 
	d="
M1114.000000,1244.000610 
	C981.881409,1244.000610 850.262817,1244.000610 718.553467,1244.000610 
	C717.999390,1239.297485 717.199829,1235.085571 717.059631,1230.851807 
	C716.581299,1216.411499 716.393616,1201.961914 715.986633,1187.518921 
	C715.369812,1165.626953 714.672852,1143.737061 713.987976,1121.847046 
	C713.676758,1111.901001 713.396973,1101.952637 712.951843,1092.012207 
	C712.381836,1079.284302 711.651855,1066.563477 711.017090,1053.838379 
	C710.967834,1052.851318 711.124939,1051.853882 711.212646,1050.432739 
	C729.630066,1050.432739 747.996826,1050.432739 766.511658,1050.432739 
	C767.010681,1055.052856 767.777527,1059.600220 767.943237,1064.169434 
	C768.424744,1077.442627 768.635437,1090.725220 769.006897,1104.002563 
	C769.652039,1127.060425 770.278259,1150.119019 771.056335,1173.172363 
	C771.216492,1177.918335 772.007324,1182.642944 772.540222,1187.687744 
	C924.762939,1187.687744 1077.002686,1187.687744 1229.471802,1187.687744 
	C1229.982910,1182.419067 1230.768677,1177.217285 1230.940918,1171.995117 
	C1231.428101,1157.221802 1231.639282,1142.439697 1232.007080,1127.662231 
	C1232.304565,1115.716064 1232.642944,1103.770630 1233.016357,1091.826538 
	C1233.301147,1082.713135 1233.681763,1073.602783 1233.997314,1064.490112 
	C1234.674927,1044.933228 1235.331909,1025.375366 1236.009399,1005.818420 
	C1236.325195,996.705933 1236.685425,987.594971 1236.996704,978.482300 
	C1237.676147,958.592041 1238.305542,938.699951 1239.053467,918.812317 
	C1239.129883,916.783813 1239.872314,914.780273 1240.469604,912.003357 
	C1245.586792,918.260986 1250.289551,923.906738 1254.877808,929.644226 
	C1264.948486,942.237427 1274.843140,954.973633 1285.047974,967.456543 
	C1290.041748,973.565002 1293.923828,979.455750 1293.206299,988.168152 
	C1292.090576,1001.715576 1292.405151,1015.377075 1291.975464,1028.985840 
	C1291.384155,1047.712158 1290.653809,1066.434204 1290.002075,1085.158691 
	C1289.321411,1104.715454 1288.668945,1124.273315 1287.993652,1143.830322 
	C1287.335693,1162.887939 1286.747314,1181.948486 1285.971924,1201.001343 
	C1285.400024,1215.056396 1284.577026,1229.101196 1283.822876,1244.000610 
	C1227.319946,1244.000610 1170.909912,1244.000610 1114.000000,1244.000610 
z"/>
<path fill="#FE7833" opacity="1.000000" stroke="none" 
	d="
M799.000488,406.134064 
	C798.331543,385.428741 797.669983,365.206909 796.990356,344.985687 
	C796.678467,335.707397 796.323242,326.430603 796.000854,317.152649 
	C795.327148,297.764557 794.661133,278.376160 793.994446,258.987823 
	C793.652527,249.043869 793.375183,239.097275 792.962708,229.156250 
	C792.358643,214.598053 791.648865,200.044250 791.019409,185.487045 
	C790.963684,184.198639 791.168152,182.899002 791.272827,181.279358 
	C809.857849,180.747864 828.197266,180.223419 846.507751,179.699783 
	C847.009399,186.909256 847.730408,193.981552 847.947998,201.069321 
	C848.432190,216.841187 848.628723,232.621658 849.011658,248.396942 
	C849.285400,259.675720 849.647217,270.952545 850.015442,282.228760 
	C850.307617,291.174255 850.687195,300.116913 850.996155,309.061890 
	C851.677246,328.783112 852.330139,348.505280 853.011292,368.226501 
	C853.320312,377.171570 853.690796,386.114532 853.995544,395.059753 
	C854.678711,415.114136 855.325684,435.169769 856.013550,455.223999 
	C856.308899,463.836243 856.698486,472.445251 856.993835,481.057495 
	C857.681702,501.111786 858.328674,521.167480 859.011963,541.221985 
	C859.316772,550.167175 859.690674,559.110107 859.995422,568.055298 
	C860.678711,588.109680 861.325684,608.165283 862.013489,628.219482 
	C862.308899,636.831726 862.698608,645.440674 862.994019,654.052917 
	C863.681763,674.107239 864.330261,694.162964 865.011292,714.217468 
	C865.320679,723.329102 865.681946,732.438904 865.997620,741.550293 
	C866.675232,761.105042 867.291199,780.661926 868.028503,800.214355 
	C868.369934,809.269775 868.936462,818.316650 869.418030,827.699951 
	C850.199707,827.699951 831.957336,827.699951 813.518494,827.699951 
	C813.344849,826.996826 813.075745,826.386108 813.058777,825.768494 
	C812.689148,812.325806 812.384277,798.881348 811.992126,785.439392 
	C811.353699,763.550598 810.677917,741.662842 809.984558,719.775696 
	C809.701294,710.829895 809.309448,701.887573 809.004639,692.942444 
	C808.321350,672.887939 807.671265,652.832397 806.987976,632.777893 
	C806.683228,623.832703 806.312805,614.889709 806.003906,605.944641 
	C805.322754,586.223511 804.670044,566.501343 803.988892,546.780212 
	C803.679871,537.835144 803.309265,528.892212 803.004456,519.947021 
	C802.321167,499.892548 801.672852,479.836853 800.987244,459.782501 
	C800.687073,451.003815 800.328979,442.227142 800.000122,433.449432 
	C799.665039,424.505646 799.333557,415.561676 799.000488,406.134064 
z"/>
<path fill="#FE7833" opacity="1.000000" stroke="none" 
	d="
M825.225464,1050.001221 
	C842.498352,1049.999878 859.294922,1049.999878 876.519653,1049.999878 
	C877.010254,1055.870605 877.483704,1061.535156 878.000916,1067.723999 
	C859.420593,1068.239380 841.106812,1068.747437 822.241028,1069.270752 
	C821.797668,1063.644409 821.459839,1058.604980 820.981873,1053.578857 
	C820.702942,1050.646362 822.043030,1049.666504 825.225464,1050.001221 
z"/>
</svg>